<?xml version="1.0" encoding="utf-8"?>
<!-- Generator: Adobe Illustrator 23.0.1, SVG Export Plug-In . SVG Version: 6.00 Build 0)  -->
<svg version="1.1" id="Layer_1" xmlns="http://www.w3.org/2000/svg" xmlns:xlink="http://www.w3.org/1999/xlink" x="0px" y="0px"
	 viewBox="0 0 670.4 240" style="enable-background:new 0 0 670.4 240;" xml:space="preserve">
<style type="text/css">
	.st0{opacity:0.31;}
	.st1{opacity:0.2185;}
	.st2{opacity:0.75;}
	.st3{fill:#CEDEE9;}
	.st4{opacity:0.3478;}
	.st5{display:none;fill:url(#SVGID_1_);}
	.st6{fill:url(#SVGID_2_);}
	.st7{fill:url(#SVGID_3_);}
	.st8{fill:url(#SVGID_4_);}
	.st9{fill:url(#SVGID_5_);}
	.st10{fill:url(#SVGID_6_);}
	.st11{display:none;fill:#404853;}
	.st12{fill:none;stroke:#B5BBC8;stroke-width:0.3368;stroke-miterlimit:10;}
	.st13{fill:none;stroke:#B5BBC8;stroke-width:0.4743;stroke-miterlimit:10;}
</style>
<g class="st0">
	<g>
		<g>
			<g>
				<g>
					<g class="st1">
					</g>
					<g>
						<g>
							<g>
								<g class="st2">
								</g>
								<g>
									<polygon class="st3" points="268.5,120 201.3,239.8 84.4,239.8 102.5,207.4 140.5,139.7 106.6,139.7 128.6,100.5 
										162.5,100.5 210,15.7 230,51.4 142.8,207.4 178.2,207.4 212.9,145.2 247.7,83 									"/>
								</g>
							</g>
							<g>
								<polygon class="st3" points="268.5,120 201.3,239.8 160.1,239.8 178.2,207.4 212.9,145.2 247.7,83 								"/>
								<polygon class="st3" points="162.4,100.5 140.4,139.7 106.6,139.7 128.6,100.5 								"/>
								<polygon class="st3" points="230,51.4 142.8,207.4 102.5,207.4 140.5,139.7 140.4,139.7 162.4,100.5 162.5,100.5 210,15.7 
																	"/>
								<polygon class="st3" points="178.2,207.4 160.1,239.8 84.4,239.8 102.5,207.4 								"/>
							</g>
						</g>
					</g>
				</g>
				<g>
					<g class="st4">
					</g>
					<g>
						<g>
							<polygon class="st3" points="184.8,0.2 164.6,36.1 87.2,36.1 107.4,0.2 							"/>
							<polygon class="st3" points="107.4,0.2 87.2,36.1 40.2,120 20.1,84.1 67.1,0.2 							"/>
							<polygon class="st3" points="78.9,189 58.8,225 0,120 20.1,84.1 40.2,120 							"/>
						</g>
					</g>
				</g>
			</g>
		</g>
		<g id="shadows_3_">
			<g>
				
					<linearGradient id="SVGID_1_" gradientUnits="userSpaceOnUse" x1="160.09" y1="80.605" x2="268.45" y2="80.605" gradientTransform="matrix(1 0 0 -1 0 242)">
					<stop  offset="0" style="stop-color:#FFFFFF;stop-opacity:0"/>
					<stop  offset="1" style="stop-color:#000000"/>
				</linearGradient>
				<polygon class="st5" points="212.9,145.2 178.2,207.4 178.2,207.4 160.1,239.8 201.3,239.8 268.5,120 247.7,83 				"/>
				
					<linearGradient id="SVGID_2_" gradientUnits="userSpaceOnUse" x1="109.85" y1="132.8091" x2="167.125" y2="107.4163" gradientTransform="matrix(1 0 0 -1 0 242)">
					<stop  offset="0" style="stop-color:#FFFFFF;stop-opacity:0"/>
					<stop  offset="1" style="stop-color:#000000"/>
				</linearGradient>
				<polygon class="st6" points="128.6,100.5 106.6,139.7 140.4,139.7 162.4,100.5 				"/>
				
					<linearGradient id="SVGID_3_" gradientUnits="userSpaceOnUse" x1="172.1949" y1="89.8913" x2="186.3809" y2="35.5114" gradientTransform="matrix(1 0 0 -1 0 242)">
					<stop  offset="0" style="stop-color:#FFFFFF;stop-opacity:0"/>
					<stop  offset="1" style="stop-color:#000000"/>
				</linearGradient>
				<polygon class="st7" points="210,15.7 162.5,100.5 162.4,100.5 140.4,139.7 140.5,139.7 102.5,207.4 142.8,207.4 230,51.4 				
					"/>
				
					<linearGradient id="SVGID_4_" gradientUnits="userSpaceOnUse" x1="116.3405" y1="18.375" x2="192.123" y2="18.375" gradientTransform="matrix(1 0 0 -1 0 242)">
					<stop  offset="0" style="stop-color:#FFFFFF;stop-opacity:0"/>
					<stop  offset="1" style="stop-color:#000000"/>
				</linearGradient>
				<polygon class="st8" points="102.5,207.4 84.4,239.8 160.1,239.8 178.2,207.4 142.8,207.4 				"/>
			</g>
			<g>
				
					<linearGradient id="SVGID_5_" gradientUnits="userSpaceOnUse" x1="148.9355" y1="223.83" x2="61.0138" y2="223.83" gradientTransform="matrix(1 0 0 -1 0 242)">
					<stop  offset="0" style="stop-color:#FFFFFF;stop-opacity:0"/>
					<stop  offset="1" style="stop-color:#000000"/>
				</linearGradient>
				<polygon class="st9" points="184.8,0.2 107.4,0.2 87.2,36.1 164.6,36.1 				"/>
				
					<linearGradient id="SVGID_6_" gradientUnits="userSpaceOnUse" x1="53.0627" y1="180.9063" x2="9.2062" y2="108.543" gradientTransform="matrix(1 0 0 -1 0 242)">
					<stop  offset="0" style="stop-color:#FFFFFF;stop-opacity:0"/>
					<stop  offset="1" style="stop-color:#000000"/>
				</linearGradient>
				<polygon class="st10" points="67.1,0.2 20.1,84.1 40.2,120 107.4,0.2 				"/>
				<polygon class="st11" points="78.9,189 58.8,225 0,120 20.1,84.1 				"/>
			</g>
		</g>
	</g>
</g>
<g>
	<g>
		<line class="st12" x1="350.8" y1="-26.2" x2="192.6" y2="254.8"/>
	</g>
</g>
<g>
	<g>
		<line class="st12" x1="307.6" y1="-23.1" x2="149.4" y2="258"/>
	</g>
</g>
<g>
	<g>
		<line class="st12" x1="193.4" y1="-14.8" x2="106.6" y2="139.7"/>
	</g>
</g>
<g>
	<g>
		<line class="st12" x1="228.9" y1="-17.4" x2="70.8" y2="263.7"/>
	</g>
</g>
<g>
	<g>
		<line class="st12" x1="270.6" y1="-20.4" x2="112.4" y2="260.6"/>
	</g>
</g>
<g>
	<g>
		<line class="st13" x1="106.6" y1="139.7" x2="985" y2="139.7"/>
	</g>
</g>
<g>
	<g>
		<line class="st13" x1="102.5" y1="207.4" x2="985" y2="207.4"/>
	</g>
</g>
</svg>
